<mxfile host="app.diagrams.net" modified="2022-06-07T15:20:57.388Z" agent="5.0 (Windows NT 10.0; Win64; x64) AppleWebKit/537.36 (KHTML, like Gecko) Chrome/102.0.0.0 Safari/537.36" etag="srHUCONQ1HFGJBPoy7r6" version="19.0.2" type="github">
  <diagram id="YxVGbOGS3LzoNo_YBOL-" name="第 1 页">
    <mxGraphModel dx="1422" dy="761" grid="1" gridSize="10" guides="1" tooltips="1" connect="1" arrows="1" fold="1" page="1" pageScale="1" pageWidth="827" pageHeight="1169" math="0" shadow="0">
      <root>
        <mxCell id="0" />
        <mxCell id="1" parent="0" />
        <mxCell id="8bF6JMfGG334J7Aiheos-8" style="edgeStyle=orthogonalEdgeStyle;rounded=0;orthogonalLoop=1;jettySize=auto;html=1;exitX=0.5;exitY=1;exitDx=0;exitDy=0;exitPerimeter=0;entryX=0.5;entryY=0;entryDx=0;entryDy=0;" edge="1" parent="1" source="8bF6JMfGG334J7Aiheos-5" target="8bF6JMfGG334J7Aiheos-7">
          <mxGeometry relative="1" as="geometry" />
        </mxCell>
        <mxCell id="8bF6JMfGG334J7Aiheos-5" value="开始" style="strokeWidth=2;html=1;shape=mxgraph.flowchart.terminator;whiteSpace=wrap;" vertex="1" parent="1">
          <mxGeometry x="260" y="80" width="100" height="60" as="geometry" />
        </mxCell>
        <mxCell id="8bF6JMfGG334J7Aiheos-6" value="结束" style="strokeWidth=2;html=1;shape=mxgraph.flowchart.terminator;whiteSpace=wrap;" vertex="1" parent="1">
          <mxGeometry x="260" y="740" width="100" height="60" as="geometry" />
        </mxCell>
        <mxCell id="8bF6JMfGG334J7Aiheos-10" style="edgeStyle=orthogonalEdgeStyle;rounded=0;orthogonalLoop=1;jettySize=auto;html=1;exitX=0.5;exitY=1;exitDx=0;exitDy=0;entryX=0.5;entryY=0;entryDx=0;entryDy=0;" edge="1" parent="1" source="8bF6JMfGG334J7Aiheos-7" target="8bF6JMfGG334J7Aiheos-9">
          <mxGeometry relative="1" as="geometry" />
        </mxCell>
        <mxCell id="8bF6JMfGG334J7Aiheos-7" value="第一步" style="rounded=1;whiteSpace=wrap;html=1;absoluteArcSize=1;arcSize=14;strokeWidth=2;" vertex="1" parent="1">
          <mxGeometry x="260" y="210" width="100" height="100" as="geometry" />
        </mxCell>
        <mxCell id="8bF6JMfGG334J7Aiheos-13" style="edgeStyle=orthogonalEdgeStyle;rounded=0;orthogonalLoop=1;jettySize=auto;html=1;entryX=0.5;entryY=0;entryDx=0;entryDy=0;" edge="1" parent="1" source="8bF6JMfGG334J7Aiheos-9" target="8bF6JMfGG334J7Aiheos-11">
          <mxGeometry relative="1" as="geometry" />
        </mxCell>
        <mxCell id="8bF6JMfGG334J7Aiheos-9" value="第二步" style="rounded=1;whiteSpace=wrap;html=1;absoluteArcSize=1;arcSize=14;strokeWidth=2;" vertex="1" parent="1">
          <mxGeometry x="260" y="390" width="100" height="80" as="geometry" />
        </mxCell>
        <mxCell id="8bF6JMfGG334J7Aiheos-12" style="edgeStyle=orthogonalEdgeStyle;rounded=0;orthogonalLoop=1;jettySize=auto;html=1;entryX=0.5;entryY=0;entryDx=0;entryDy=0;entryPerimeter=0;" edge="1" parent="1" source="8bF6JMfGG334J7Aiheos-11" target="8bF6JMfGG334J7Aiheos-6">
          <mxGeometry relative="1" as="geometry" />
        </mxCell>
        <mxCell id="8bF6JMfGG334J7Aiheos-11" value="第三步" style="rounded=1;whiteSpace=wrap;html=1;absoluteArcSize=1;arcSize=14;strokeWidth=2;" vertex="1" parent="1">
          <mxGeometry x="260" y="540" width="100" height="100" as="geometry" />
        </mxCell>
      </root>
    </mxGraphModel>
  </diagram>
</mxfile>
